<?xml version="1.0" encoding="iso-8859-1"?>
<!-- Uploaded to: SVG Repo, www.svgrepo.com, Generator: SVG Repo Mixer Tools -->
<svg height="800px" width="800px" version="1.1" id="Layer_1" xmlns="http://www.w3.org/2000/svg" xmlns:xlink="http://www.w3.org/1999/xlink" 
	 viewBox="0 0 512.326 512.326" xml:space="preserve">
<g transform="translate(1 1)">
	<g>
		<path style="fill:#FFE100;" d="M502.629,315.75h-60.587c-5.12,0-8.533-3.413-8.533-8.533s3.413-8.533,8.533-8.533h60.587
			c5.12,0,8.533,3.413,8.533,8.533S507.749,315.75,502.629,315.75z"/>
		<path style="fill:#FFE100;" d="M442.043,281.617c-4.267,0-7.68-2.56-8.533-6.827s1.707-9.387,6.827-10.24l60.587-13.653
			c4.267-0.853,9.387,1.707,10.24,5.973c0.853,4.267-1.707,9.387-6.827,10.24l-60.587,13.653
			C443.749,281.617,442.896,281.617,442.043,281.617z"/>
		<path style="fill:#FFE100;" d="M502.629,363.537c-0.853,0-1.707,0-1.707,0l-64-14.507c-4.267-0.853-7.68-5.973-6.827-10.24
			s5.973-7.68,10.24-6.827l64,14.507c4.267,0.853,7.68,5.973,6.827,10.24S506.896,363.537,502.629,363.537z"/>
		<path style="fill:#FFE100;" d="M68.283,315.75H7.696c-5.12,0-8.533-3.413-8.533-8.533s3.413-8.533,8.533-8.533h60.587
			c5.12,0,8.533,3.413,8.533,8.533S72.549,315.75,68.283,315.75z"/>
		<path style="fill:#FFE100;" d="M68.283,281.617c-0.853,0-0.853,0-1.707,0L5.989,267.964c-4.267-0.853-7.68-5.973-6.827-10.24
			s5.973-7.68,10.24-6.827l60.587,13.653c4.267,0.853,7.68,5.973,6.827,10.24C75.109,279.057,71.696,281.617,68.283,281.617z"/>
		<path style="fill:#FFE100;" d="M7.696,363.537c-4.267,0-7.68-2.56-8.533-6.827s1.707-9.387,5.973-10.24l64-14.507
			c4.267-0.853,9.387,1.707,10.24,6.827c0.853,4.267-1.707,9.387-5.973,10.24l-64,14.507C8.549,363.537,8.549,363.537,7.696,363.537
			z"/>
		<path style="fill:#FFE100;" d="M263.696,472.764c36.693,0,179.2-12.8,179.2-188.587c0-68.267-21.333-111.787-50.347-139.093
			c15.36-10.24,24.747-28.16,24.747-47.787c0-33.28-26.453-59.733-59.733-59.733s-59.734,26.453-59.734,59.733
			c0,0.853,0,1.707,0,2.56c-8.533-0.853-23.893-2.56-42.667-2.56s-34.987,1.707-42.667,2.56c0-0.853,0-1.707,0-2.56
			c0-33.28-26.453-59.733-59.733-59.733S93.029,64.017,93.029,97.297c0,19.627,9.387,37.547,24.747,47.787
			c-29.013,28.16-50.347,71.68-50.347,139.093c0,175.787,142.507,188.587,179.2,188.587H263.696z"/>
	</g>
	<path style="fill:#FFA800;" d="M392.549,145.084c15.36-10.24,24.747-28.16,24.747-47.787c0-33.28-26.453-59.733-59.733-59.733
		c-4.267,0-8.533,0.853-12.8,1.707c26.453,5.973,46.933,29.013,46.933,58.027c0,19.627-9.387,37.547-24.747,47.787
		c29.013,28.16,50.347,71.68,50.347,139.093c0,169.813-132.267,186.88-174.933,187.733c1.707,0,2.56,0,4.267,0h17.067
		c36.693,0,179.2-12.8,179.2-188.587C442.896,216.764,421.563,173.244,392.549,145.084"/>
	<path style="fill:#FFFFFF;" d="M117.776,145.084c-15.36-10.24-24.747-28.16-24.747-47.787c0-33.28,26.453-59.733,59.733-59.733
		c4.267,0,8.533,0.853,12.8,1.707c-26.453,5.973-46.933,29.013-46.933,58.027c0,19.627,9.387,37.547,24.747,47.787
		c-29.013,28.16-50.347,71.68-50.347,139.093c0,169.813,132.267,186.88,174.933,187.733c-1.707,0-2.56,0-4.267,0h-17.066
		c-36.693,0-179.2-12.8-179.2-188.587C67.429,216.764,88.763,173.244,117.776,145.084"/>
	<g>
		<path style="fill:#63D3FD;" d="M212.496,225.297c0,14.507-11.093,25.6-25.6,25.6s-25.6-11.093-25.6-25.6s11.093-25.6,25.6-25.6
			C201.403,199.697,212.496,210.79,212.496,225.297"/>
		<path style="fill:#63D3FD;" d="M349.029,225.297c0,14.507-11.093,25.6-25.6,25.6c-14.507,0-25.6-11.093-25.6-25.6
			s11.093-25.6,25.6-25.6S349.029,210.79,349.029,225.297"/>
		<path style="fill:#63D3FD;" d="M323.429,148.497c0-7.68-22.187-14.507-51.2-16.213c0-5.973,0-11.947,0-17.92s0-11.093,0-17.067
			c-5.12,0-11.093,0-17.067,0c-5.973,0-11.947,0-17.067,0c0,5.12,0,11.093,0,17.067c0,5.973,0,11.947,0,17.92
			c-29.867,1.707-51.2,8.533-51.2,16.213c0,8.533,23.04,15.36,53.76,17.067c3.413,25.6,8.533,42.667,14.507,42.667
			c5.973,0,11.093-17.067,14.507-42.667C300.389,163.857,323.429,157.03,323.429,148.497"/>
		<path style="fill:#63D3FD;" d="M255.163,293.564c-52.053,0-93.867,30.72-93.867,68.267c0,12.8,5.12,24.747,13.653,34.987
			c13.653,16.213,34.133,24.747,55.467,24.747h50.347c21.333,0,41.813-8.533,55.467-24.747c8.533-10.24,13.653-22.187,13.653-34.987
			C349.029,324.284,307.216,293.564,255.163,293.564"/>
	</g>
	<path d="M255.163,336.23c-18.773,0-34.133-11.093-34.133-25.6c0-14.507,15.36-25.6,34.133-25.6s34.133,11.093,34.133,25.6
		C289.296,325.137,273.936,336.23,255.163,336.23z M255.163,302.097c-10.24,0-17.067,5.12-17.067,8.533s6.827,8.533,17.067,8.533
		c10.24,0,17.067-5.12,17.067-8.533C272.229,307.217,265.403,302.097,255.163,302.097z"/>
	<path d="M186.896,259.43c-18.773,0-34.133-15.36-34.133-34.133s15.36-34.133,34.133-34.133s34.133,15.36,34.133,34.133
		S205.669,259.43,186.896,259.43z M186.896,208.23c-9.387,0-17.067,7.68-17.067,17.067s7.68,17.067,17.067,17.067
		c9.387,0,17.067-7.68,17.067-17.067S196.283,208.23,186.896,208.23z"/>
	<path d="M323.429,259.43c-18.773,0-34.133-15.36-34.133-34.133s15.36-34.133,34.133-34.133s34.133,15.36,34.133,34.133
		S342.203,259.43,323.429,259.43z M323.429,208.23c-9.387,0-17.067,7.68-17.067,17.067s7.68,17.067,17.067,17.067
		s17.067-7.68,17.067-17.067S332.816,208.23,323.429,208.23z"/>
	<path d="M255.163,395.964c-23.04,0-44.373-5.973-64-17.92c-4.267-2.56-5.12-7.68-2.56-11.947s7.68-5.12,11.947-2.56
		c17.067,10.24,35.84,16.213,55.467,16.213s37.547-5.12,55.467-16.213c4.267-2.56,9.387-0.853,11.947,2.56
		c2.56,4.267,0.853,9.387-2.56,11.947C299.536,389.99,278.203,395.964,255.163,395.964z"/>
	<path d="M502.629,310.63h-60.587c-5.12,0-8.533-3.413-8.533-8.533s3.413-8.533,8.533-8.533h60.587c5.12,0,8.533,3.413,8.533,8.533
		S507.749,310.63,502.629,310.63z"/>
	<path d="M442.043,276.497c-4.267,0-7.68-2.56-8.533-6.827s1.707-9.387,6.827-10.24l60.587-13.653
		c4.267-0.853,9.387,1.707,10.24,6.827c0.853,4.267-1.707,9.387-6.827,10.24l-59.733,13.653
		C443.749,276.497,442.896,276.497,442.043,276.497z"/>
	<path d="M263.696,481.297h-17.067c-31.573,0-187.733-11.093-187.733-197.12c0-58.027,15.36-104.96,46.08-138.24
		c-12.8-12.8-20.48-30.72-20.48-48.64c0-37.547,30.72-68.267,68.267-68.267c34.987,0,64.853,27.307,68.267,61.44
		c8.533-0.853,20.48-1.707,34.133-1.707c13.653,0,25.6,0.853,34.133,1.707c3.413-34.133,32.427-61.44,68.267-61.44
		c37.547,0,68.267,30.72,68.267,68.267c0,17.92-7.68,35.84-20.48,48.64c30.72,33.28,46.08,80.213,46.08,138.24
		C451.429,470.204,295.269,481.297,263.696,481.297L263.696,481.297z M152.763,46.097c-28.16,0-51.2,23.04-51.2,51.2
		c0,16.213,7.68,31.573,20.48,40.96c1.707,1.707,3.413,3.413,3.413,5.973s-0.853,5.12-2.56,6.827
		c-30.72,30.72-46.933,75.947-46.933,133.12c0,166.4,130.56,180.053,170.667,180.053h17.067
		c40.107,0,170.667-14.507,170.667-180.053c0-58.027-16.213-102.4-47.787-133.12c-1.707-1.707-2.56-4.267-2.56-6.827
		s1.707-5.12,3.413-5.973c13.653-9.387,21.333-24.747,21.333-40.96c0-28.16-23.04-51.2-51.2-51.2s-51.2,23.04-51.2,51.2v2.56
		c0,2.56-0.853,5.12-2.56,6.827s-4.267,2.56-6.827,2.56c-7.68-1.707-23.893-3.413-41.813-3.413s-34.133,1.707-41.813,2.56
		c-2.56,0-5.12-0.853-6.827-2.56c-1.707-0.853-2.56-3.413-2.56-5.973v-2.56C203.963,69.137,180.923,46.097,152.763,46.097z"/>
	<path d="M95.589,123.75c-0.853,0-1.707,0-2.56-0.853c-2.56,0-4.267-2.56-5.12-5.12c-2.56-6.827-3.413-13.653-3.413-20.48
		c0-37.547,30.72-68.267,68.267-68.267c17.067,0,33.28,5.973,45.227,17.92c1.707,1.707,3.413,4.267,2.56,6.827
		c0,2.56-1.707,5.12-4.267,6.827l-95.573,62.293C99.003,123.75,97.296,123.75,95.589,123.75z M152.763,46.097
		c-28.16,0-51.2,23.04-51.2,51.2c0,1.707,0,2.56,0,4.267l75.947-48.64C169.829,48.657,161.296,46.097,152.763,46.097z"/>
	<path d="M414.736,123.75c-1.707,0-3.413-0.853-4.267-1.707l-97.28-62.293c-2.56-1.707-3.413-4.267-4.267-6.827
		c0-2.56,0.853-5.12,2.56-6.827c12.8-11.093,29.013-17.067,46.08-17.067c37.547,0,68.267,30.72,68.267,68.267
		c0,6.827-0.853,14.507-3.413,20.48c-0.853,2.56-2.56,4.267-5.12,5.12C416.443,123.75,415.589,123.75,414.736,123.75z
		 M332.816,52.924l75.947,48.64c0-1.707,0-2.56,0-4.267c0-28.16-23.04-51.2-51.2-51.2C349.029,46.097,340.496,48.657,332.816,52.924
		z"/>
	<path d="M255.163,216.764c-7.68,0-16.213-5.12-22.187-43.52c-23.04-1.707-54.613-7.68-54.613-24.747
		c0-16.213,29.013-22.187,51.2-24.747c0-3.413,0-6.827,0-9.387c0-5.973,0-11.947,0-17.067c0-4.267,3.413-7.68,7.68-8.533
		c11.093,0,24.747,0,34.987,0c4.267,0,7.68,3.413,7.68,8.533c0,5.12,0,11.093,0,17.067c0,3.413,0,6.827,0,9.387
		c22.187,1.707,51.2,7.68,51.2,24.747s-31.573,23.04-54.613,24.747C271.376,211.644,262.843,216.764,255.163,216.764z
		 M197.989,148.497c5.973,2.56,19.627,6.827,43.52,8.533c4.267,0,7.68,3.413,7.68,7.68c1.707,15.36,4.267,24.747,5.973,29.867
		c1.707-5.12,4.267-15.36,5.973-29.867c0.853-4.267,4.267-7.68,7.68-7.68c23.893-0.853,37.547-5.12,43.52-8.533
		c-5.973-2.56-18.773-6.827-40.96-7.68c-4.267,0-8.533-4.267-7.68-8.533c0-5.973,0-11.093,0-17.067c0-2.56,0-5.973,0-8.533
		c-5.12,0-11.093,0-17.067,0c0,2.56,0,5.973,0,8.533c0,5.973,0,11.947,0,17.067c0,4.267-3.413,8.533-7.68,8.533
		C216.763,141.67,203.109,145.937,197.989,148.497z"/>
	<path d="M81.936,378.044c-3.413,0-6.827-1.707-7.68-5.12c-4.267-11.093-7.68-22.187-10.24-34.133
		c-0.853-4.267,1.707-8.533,5.973-9.387c17.067-5.973,34.133-9.387,46.933-9.387s21.333,3.413,23.893,11.093
		c3.413,8.533-2.56,17.92-15.36,27.307c-10.24,7.68-24.747,14.507-40.107,19.627C83.643,378.044,82.789,378.044,81.936,378.044z
		 M81.936,342.204c1.707,5.12,2.56,11.093,4.267,16.213c20.48-8.533,32.427-17.067,35.84-21.333c-1.707,0-3.413-0.853-6.827-0.853
		C107.536,336.23,95.589,337.937,81.936,342.204z"/>
	<path d="M68.283,310.63c-4.267,0-8.533-3.413-8.533-7.68c-0.853-5.973-0.853-11.947-0.853-18.773c0-5.973,0-11.093,0.853-17.067
		c0-4.267,4.267-7.68,8.533-7.68l0,0c6.827,0,67.413,0.853,67.413,25.6C135.696,309.777,75.109,310.63,68.283,310.63L68.283,310.63z
		 M75.963,276.497c0,2.56,0,5.12,0,7.68c0,3.413,0,5.973,0,8.533c22.187-0.853,35.84-5.12,40.96-8.533
		C111.803,281.617,98.149,277.35,75.963,276.497z"/>
	<path d="M116.069,250.897L116.069,250.897c-12.8,0-29.867-3.413-46.933-9.387c-4.267-1.707-6.827-5.12-5.973-9.387
		c2.56-11.947,5.973-23.893,9.387-34.133c1.707-4.267,5.973-6.827,10.24-5.12c6.827,2.56,64.853,23.893,56.32,46.933
		C137.403,247.484,129.723,250.897,116.069,250.897z M81.936,227.857c12.8,4.267,25.6,5.973,34.133,5.973l0,0
		c3.413,0,5.12,0,6.827-0.853c-3.413-5.12-16.213-13.653-35.84-21.333C84.496,216.764,83.643,221.884,81.936,227.857z"/>
	<path d="M442.043,311.484L442.043,311.484c-6.827,0-67.413-0.853-67.413-25.6s60.587-25.6,67.413-25.6l0,0
		c4.267,0,8.533,3.413,8.533,7.68c0,5.12,0.853,11.093,0.853,17.067s0,11.947-0.853,17.92
		C450.576,308.07,447.163,311.484,442.043,311.484z M393.403,285.884c5.12,3.413,19.627,7.68,40.96,8.533c0-2.56,0-5.973,0-8.533
		s0-5.12,0-7.68C412.176,279.057,398.523,283.324,393.403,285.884z"/>
	<path d="M394.256,251.75L394.256,251.75c-12.8,0-21.333-3.413-23.893-11.093c-8.533-23.04,49.493-44.373,55.467-46.933l0,0
		c4.267-1.707,9.387,0.853,11.093,5.12c4.267,10.24,7.68,22.187,9.387,34.133c0.853,4.267-1.707,8.533-5.973,9.387
		C424.123,248.337,406.203,251.75,394.256,251.75z M387.429,234.684c1.707,0,3.413,0.853,5.973,0.853
		c9.387,0,21.333-2.56,34.133-5.973c-0.853-5.973-2.56-11.093-4.267-16.213C403.643,221.03,391.696,229.564,387.429,234.684z"/>
	<path d="M428.389,378.897c-0.853,0-1.707,0-2.56-0.853c-6.827-2.56-63.147-23.893-55.467-46.933
		c2.56-7.68,11.093-11.093,23.893-11.093c12.8,0,29.013,3.413,46.933,9.387c4.267,1.707,6.827,5.973,5.973,9.387
		c-2.56,11.947-5.973,23.04-10.24,34.133C434.363,376.337,431.803,378.897,428.389,378.897z M387.429,337.937
		c3.413,4.267,15.36,13.653,35.84,21.333c1.707-5.12,3.413-10.24,4.267-16.213c-12.8-4.267-24.747-5.973-34.133-5.973
		C390.843,337.084,389.136,337.084,387.429,337.937z"/>
	<path d="M280.763,430.097h-51.2c-24.747,0-46.933-10.24-61.44-27.307c-10.24-12.8-15.36-26.453-15.36-40.96
		c0-42.667,46.08-76.8,102.4-76.8s102.4,34.133,102.4,76.8c0,14.507-5.12,28.16-15.36,40.96
		C327.696,419.857,305.509,430.097,280.763,430.097z M255.163,302.097c-46.933,0-85.333,26.453-85.333,59.733
		c0,10.24,4.267,20.48,11.093,29.867c11.093,13.653,29.013,21.333,48.64,21.333h51.2c19.627,0,37.547-7.68,48.64-21.333
		c7.68-9.387,11.093-19.627,11.093-29.867C340.496,328.55,302.096,302.097,255.163,302.097z"/>
	<path d="M502.629,358.417c-0.853,0-1.707,0-1.707,0l-64-14.507c-4.267-0.853-7.68-5.973-6.827-10.24s5.973-7.68,10.24-6.827
		l64,14.507c4.267,0.853,7.68,5.973,6.827,10.24S506.896,358.417,502.629,358.417z"/>
	<path d="M68.283,310.63H7.696c-5.12,0-8.533-3.413-8.533-8.533s3.413-8.533,8.533-8.533h60.587c5.12,0,8.533,3.413,8.533,8.533
		S72.549,310.63,68.283,310.63z"/>
	<path d="M68.283,276.497c-0.853,0-0.853,0-1.707,0L5.989,262.844c-4.267-0.853-7.68-5.973-6.827-10.24s5.973-7.68,10.24-6.827
		l60.587,13.653c4.267,0.853,7.68,5.973,6.827,10.24C75.109,273.937,71.696,276.497,68.283,276.497z"/>
	<path d="M7.696,358.417c-4.267,0-7.68-2.56-8.533-6.827s1.707-9.387,6.827-10.24l64-14.507c4.267-0.853,9.387,1.707,10.24,6.827
		c0.853,4.267-1.707,9.387-6.827,10.24l-64,14.507C9.403,358.417,8.549,358.417,7.696,358.417z"/>
</g>
</svg>